<?xml version="1.0" encoding="UTF-8"?>
<svg width="166px" height="55px" viewBox="0 0 166 55" version="1.1" xmlns="http://www.w3.org/2000/svg" xmlns:xlink="http://www.w3.org/1999/xlink">
    <title>编组 4</title>
    <defs>
        <linearGradient x1="81.7060525%" y1="-2.29073388%" x2="17.8901485%" y2="100.393202%" id="linearGradient-1">
            <stop stop-color="#00B9FB" offset="0%"></stop>
            <stop stop-color="#1D5FFF" offset="100%"></stop>
        </linearGradient>
    </defs>
    <g id="认证" stroke="none" stroke-width="1" fill="none" fill-rule="evenodd">
        <g id="画板" transform="translate(-417, -166)">
            <g id="编组-4" transform="translate(417, 166)">
                <rect id="矩形备份-3" stroke="#E6E6E6" stroke-width="0.728070175" fill="#FFFFFF" x="0.364035088" y="0.364035088" width="165.27193" height="54.2719298" rx="15.2894735"></rect>
                <g id="已接入PostChat备份" transform="translate(13.308, 13.352)" fill="#000000" fill-rule="nonzero">
                    <path d="M9.744,7.776 C9.72,8.12 9.676,8.496 9.612,8.904 C9.54,9.376 9.432,9.736 9.288,9.984 C9.144,10.232 8.928,10.412 8.64,10.524 C8.352,10.636 7.94,10.696 7.404,10.704 C6.252,10.72 5.392,10.728 4.824,10.728 C4.256,10.728 3.396,10.72 2.244,10.704 C1.716,10.696 1.302,10.628 1.002,10.5 C0.702,10.372 0.486,10.158 0.354,9.858 C0.222,9.558 0.156,9.136 0.156,8.592 L0.156,2.952 L1.752,3.012 L1.752,4.236 L7.188,4.236 L7.188,2.052 L0,2.052 L0,0.492 L8.736,0.492 L8.736,5.772 L1.752,5.772 L1.752,8.172 C1.752,8.468 1.776,8.682 1.824,8.814 C1.872,8.946 1.962,9.034 2.094,9.078 C2.226,9.122 2.444,9.148 2.748,9.156 C3.22,9.164 3.92,9.168 4.848,9.168 C5.784,9.168 6.484,9.164 6.948,9.156 C7.26,9.148 7.488,9.124 7.632,9.084 C7.776,9.044 7.878,8.97 7.938,8.862 C7.998,8.754 8.048,8.58 8.088,8.34 C8.152,7.916 8.192,7.548 8.208,7.236 L9.744,7.776 Z" id="路径"></path>
                    <path d="M20.4483154,3.624 L22.1403154,3.624 L22.1403154,4.932 L15.1563154,4.932 L15.1563154,3.624 L16.5483154,3.624 L16.3563154,2.304 L15.3483154,2.304 L15.3483154,1.02 L17.8083154,1.02 L17.5923154,0.12 L19.0803154,0.048 L19.2843154,1.02 L21.6123154,1.02 L21.6123154,2.304 L20.6643154,2.304 L20.4483154,3.624 Z M14.8803154,5.94 L14.1843154,6.18 L14.1843154,9.204 C14.1843154,9.58 14.1483154,9.874 14.0763154,10.086 C14.0043154,10.298 13.8803154,10.456 13.7043154,10.56 C13.5283154,10.664 13.2723154,10.736 12.9363154,10.776 L12.1683154,10.86 L11.7603154,9.516 L12.3723154,9.432 C12.5803154,9.4 12.7183154,9.344 12.7863154,9.264 C12.8543154,9.184 12.8883154,9.044 12.8883154,8.844 L12.8883154,6.636 C12.4163154,6.804 12.0123154,6.956 11.6763154,7.092 L11.4003154,5.7 C11.7843154,5.588 12.2803154,5.424 12.8883154,5.208 L12.8883154,3.42 L11.8203154,3.42 L11.8203154,2.028 L12.8883154,2.028 L12.8883154,0.216 L14.1843154,0.276 L14.1843154,2.028 L15.0723154,2.028 L15.0723154,3.42 L14.1843154,3.42 L14.1843154,4.728 L14.8203154,4.464 L14.8443154,5.124 L14.8803154,5.94 Z M17.6883154,2.304 L17.8803154,3.624 L19.1043154,3.624 C19.1843154,3.128 19.2523154,2.688 19.3083154,2.304 L17.6883154,2.304 Z M15.0243154,5.748 L16.6323154,5.748 L16.9563154,4.932 L18.3243154,5.28 L18.1203154,5.748 L21.8763154,5.748 L21.8763154,7.02 L20.8203154,7.02 C20.5483154,7.684 20.2523154,8.216 19.9323154,8.616 C20.8523154,9.024 21.5803154,9.36 22.1163154,9.624 L21.5043154,10.956 C20.6163154,10.452 19.7243154,9.992 18.8283154,9.576 C18.4123154,9.848 17.8963154,10.094 17.2803154,10.314 C16.6643154,10.534 15.9043154,10.752 15.0003154,10.968 L14.4603154,9.648 C15.6923154,9.376 16.6243154,9.12 17.2563154,8.88 C16.8643154,8.712 16.2763154,8.468 15.4923154,8.148 C15.7003154,7.796 15.9003154,7.42 16.0923154,7.02 L15.0243154,7.02 L15.0243154,5.748 Z M17.5443154,7.02 C17.4563154,7.22 17.3683154,7.392 17.2803154,7.536 C17.6723154,7.672 18.1283154,7.848 18.6483154,8.064 C18.9123154,7.824 19.1603154,7.476 19.3923154,7.02 L17.5443154,7.02 Z" id="形状"></path>
                    <path d="M34.5966307,9.528 L33.4686307,10.788 C31.6126307,9.252 30.1926307,7.192 29.2086307,4.608 L29.1846307,4.536 C28.7846307,5.744 28.2046307,6.886 27.4446307,7.962 C26.6846307,9.038 25.7606307,9.996 24.6726307,10.836 L23.5686307,9.564 C24.7606307,8.74 25.7666307,7.732 26.5866307,6.54 C27.4066307,5.348 27.9966307,4.06 28.3566307,2.676 C28.1406307,2.332 27.9126307,2.03 27.6726307,1.77 C27.4326307,1.51 27.1366307,1.228 26.7846307,0.924 L27.7566307,-2.84217094e-14 L28.5246307,0.624 C28.9726307,1.04 29.3526307,1.516 29.6646307,2.052 C29.9766307,2.588 30.2846307,3.268 30.5886307,4.092 C31.2126307,5.428 31.8106307,6.5 32.3826307,7.308 C32.9546307,8.116 33.6926307,8.856 34.5966307,9.528 Z" id="路径"></path>
                    <path d="M36.4809461,1.32 L39.3249461,1.32 C39.9489461,1.32 40.4709461,1.374 40.8909461,1.482 C41.3109461,1.59 41.6469461,1.758 41.8989461,1.986 C42.1509461,2.214 42.3309461,2.506 42.4389461,2.862 C42.5469461,3.218 42.6009461,3.648 42.6009461,4.152 C42.6009461,4.696 42.5409461,5.154 42.4209461,5.526 C42.3009461,5.898 42.1089461,6.2 41.8449461,6.432 C41.5809461,6.664 41.2409461,6.83 40.8249461,6.93 C40.4089461,7.03 39.9089461,7.08 39.3249461,7.08 L38.3049461,7.08 L38.3049461,9.648 L36.4809461,9.648 L36.4809461,1.32 Z M39.0849461,5.616 C39.3969461,5.616 39.6569461,5.594 39.8649461,5.55 C40.0729461,5.506 40.2429461,5.428 40.3749461,5.316 C40.5069461,5.204 40.6009461,5.058 40.6569461,4.878 C40.7129461,4.698 40.7409461,4.468 40.7409461,4.188 C40.7409461,3.924 40.7129461,3.7 40.6569461,3.516 C40.6009461,3.332 40.5069461,3.184 40.3749461,3.072 C40.2429461,2.96 40.0709461,2.88 39.8589461,2.832 C39.6469461,2.784 39.3889461,2.76 39.0849461,2.76 L38.3049461,2.76 L38.3049461,5.616 L39.0849461,5.616 Z" id="形状"></path>
                    <path d="M47.3652615,9.768 C46.8612615,9.768 46.4112615,9.716 46.0152615,9.612 C45.6192615,9.508 45.2872615,9.328 45.0192615,9.072 C44.7512615,8.816 44.5452615,8.472 44.4012615,8.04 C44.2572615,7.608 44.1852615,7.064 44.1852615,6.408 C44.1852615,5.752 44.2572615,5.208 44.4012615,4.776 C44.5452615,4.344 44.7512615,4 45.0192615,3.744 C45.2872615,3.488 45.6192615,3.308 46.0152615,3.204 C46.4112615,3.1 46.8612615,3.048 47.3652615,3.048 C47.8692615,3.048 48.3172615,3.1 48.7092615,3.204 C49.1012615,3.308 49.4312615,3.488 49.6992615,3.744 C49.9672615,4 50.1732615,4.344 50.3172615,4.776 C50.4612615,5.208 50.5332615,5.752 50.5332615,6.408 C50.5332615,7.064 50.4612615,7.608 50.3172615,8.04 C50.1732615,8.472 49.9672615,8.816 49.6992615,9.072 C49.4312615,9.328 49.1012615,9.508 48.7092615,9.612 C48.3172615,9.716 47.8692615,9.768 47.3652615,9.768 Z M47.3652615,8.448 C47.6292615,8.448 47.8512615,8.416 48.0312615,8.352 C48.2112615,8.288 48.3552615,8.178 48.4632615,8.022 C48.5712615,7.866 48.6472615,7.656 48.6912615,7.392 C48.7352615,7.128 48.7572615,6.8 48.7572615,6.408 C48.7572615,6.016 48.7332615,5.688 48.6852615,5.424 C48.6372615,5.16 48.5592615,4.948 48.4512615,4.788 C48.3432615,4.628 48.2012615,4.514 48.0252615,4.446 C47.8492615,4.378 47.6292615,4.344 47.3652615,4.344 C47.1012615,4.344 46.8792615,4.378 46.6992615,4.446 C46.5192615,4.514 46.3752615,4.628 46.2672615,4.788 C46.1592615,4.948 46.0832615,5.16 46.0392615,5.424 C45.9952615,5.688 45.9732615,6.016 45.9732615,6.408 C45.9732615,6.8 45.9972615,7.128 46.0452615,7.392 C46.0932615,7.656 46.1712615,7.866 46.2792615,8.022 C46.3872615,8.178 46.5292615,8.288 46.7052615,8.352 C46.8812615,8.416 47.1012615,8.448 47.3652615,8.448 Z" id="形状"></path>
                    <path d="M54.2055768,9.72 C53.8295768,9.72 53.4655768,9.702 53.1135768,9.666 C52.7615768,9.63 52.4415768,9.58 52.1535768,9.516 L52.1535768,8.064 C52.4655768,8.16 52.7955768,8.234 53.1435768,8.286 C53.4915768,8.338 53.8135768,8.364 54.1095768,8.364 C54.4855768,8.364 54.7595768,8.32 54.9315768,8.232 C55.1035768,8.144 55.1895768,7.972 55.1895768,7.716 C55.1895768,7.588 55.1735768,7.48 55.1415768,7.392 C55.1095768,7.304 55.0475768,7.228 54.9555768,7.164 C54.8635768,7.1 54.7375768,7.042 54.5775768,6.99 C54.4175768,6.938 54.2055768,6.88 53.9415768,6.816 C53.5975768,6.736 53.3135768,6.646 53.0895768,6.546 C52.8655768,6.446 52.6895768,6.326 52.5615768,6.186 C52.4335768,6.046 52.3455768,5.878 52.2975768,5.682 C52.2495768,5.486 52.2255768,5.252 52.2255768,4.98 C52.2255768,4.676 52.2715768,4.404 52.3635768,4.164 C52.4555768,3.924 52.6055768,3.722 52.8135768,3.558 C53.0215768,3.394 53.2895768,3.268 53.6175768,3.18 C53.9455768,3.092 54.3455768,3.048 54.8175768,3.048 C55.1775768,3.048 55.5195768,3.068 55.8435768,3.108 C56.1675768,3.148 56.4175768,3.2 56.5935768,3.264 L56.5215768,4.596 C56.4335768,4.572 56.3255768,4.546 56.1975768,4.518 C56.0695768,4.49 55.9315768,4.464 55.7835768,4.44 C55.6355768,4.416 55.4835768,4.396 55.3275768,4.38 C55.1715768,4.364 55.0215768,4.356 54.8775768,4.356 C54.4775768,4.356 54.2075768,4.4 54.0675768,4.488 C53.9275768,4.576 53.8575768,4.732 53.8575768,4.956 C53.8575768,5.06 53.8715768,5.144 53.8995768,5.208 C53.9275768,5.272 53.9855768,5.328 54.0735768,5.376 C54.1615768,5.424 54.2835768,5.472 54.4395768,5.52 C54.5955768,5.568 54.8015768,5.624 55.0575768,5.688 C55.4095768,5.776 55.7015768,5.874 55.9335768,5.982 C56.1655768,6.09 56.3495768,6.218 56.4855768,6.366 C56.6215768,6.514 56.7155768,6.694 56.7675768,6.906 C56.8195768,7.118 56.8455768,7.372 56.8455768,7.668 C56.8455768,8.052 56.7855768,8.374 56.6655768,8.634 C56.5455768,8.894 56.3735768,9.104 56.1495768,9.264 C55.9255768,9.424 55.6495768,9.54 55.3215768,9.612 C54.9935768,9.684 54.6215768,9.72 54.2055768,9.72 Z" id="路径"></path>
                    <path d="M60.6618922,4.536 L60.6618922,7.428 C60.6618922,7.62 60.6718922,7.776 60.6918922,7.896 C60.7118922,8.016 60.7498922,8.11 60.8058922,8.178 C60.8618922,8.246 60.9378922,8.294 61.0338922,8.322 C61.1298922,8.35 61.2538922,8.364 61.4058922,8.364 C61.6138922,8.364 61.7858922,8.348 61.9218922,8.316 L61.9218922,9.66 C61.7938922,9.676 61.6578922,9.69 61.5138922,9.702 C61.3698922,9.714 61.2258922,9.72 61.0818922,9.72 C60.6818922,9.72 60.3438922,9.688 60.0678922,9.624 C59.7918922,9.56 59.5698922,9.448 59.4018922,9.288 C59.2338922,9.128 59.1118922,8.908 59.0358922,8.628 C58.9598922,8.348 58.9218922,7.996 58.9218922,7.572 L58.9218922,4.536 L58.0698922,4.536 L58.0698922,3.168 L58.9218922,3.168 L58.9218922,1.632 L60.6618922,1.632 L60.6618922,3.168 L62.0058922,3.168 L62.0058922,4.536 L60.6618922,4.536 Z" id="路径"></path>
                    <path d="M67.4182076,9.768 C66.8102076,9.768 66.2582076,9.708 65.7622076,9.588 C65.2662076,9.468 64.8422076,9.25 64.4902076,8.934 C64.1382076,8.618 63.8662076,8.182 63.6742076,7.626 C63.4822076,7.07 63.3862076,6.356 63.3862076,5.484 C63.3862076,4.684 63.4802076,4.01 63.6682076,3.462 C63.8562076,2.914 64.1262076,2.472 64.4782076,2.136 C64.8302076,1.8 65.2522076,1.56 65.7442076,1.416 C66.2362076,1.272 66.7902076,1.2 67.4062076,1.2 C68.1902076,1.2 68.8382076,1.292 69.3502076,1.476 L69.3502076,3.048 C69.0942076,2.96 68.8142076,2.89 68.5102076,2.838 C68.2062076,2.786 67.8782076,2.76 67.5262076,2.76 C67.1502076,2.76 66.8262076,2.806 66.5542076,2.898 C66.2822076,2.99 66.0582076,3.142 65.8822076,3.354 C65.7062076,3.566 65.5762076,3.844 65.4922076,4.188 C65.4082076,4.532 65.3662076,4.96 65.3662076,5.472 C65.3662076,6.016 65.4082076,6.462 65.4922076,6.81 C65.5762076,7.158 65.7062076,7.434 65.8822076,7.638 C66.0582076,7.842 66.2802076,7.984 66.5482076,8.064 C66.8162076,8.144 67.1342076,8.184 67.5022076,8.184 C67.8462076,8.184 68.1762076,8.158 68.4922076,8.106 C68.8082076,8.054 69.1262076,7.972 69.4462076,7.86 L69.4462076,9.42 C69.1982076,9.524 68.8982076,9.608 68.5462076,9.672 C68.1942076,9.736 67.8182076,9.768 67.4182076,9.768 Z" id="路径"></path>
                    <path d="M75.0505229,3.048 C75.4505229,3.048 75.7885229,3.094 76.0645229,3.186 C76.3405229,3.278 76.5625229,3.416 76.7305229,3.6 C76.8985229,3.784 77.0185229,4.01 77.0905229,4.278 C77.1625229,4.546 77.1985229,4.86 77.1985229,5.22 L77.1985229,9.648 L75.4585229,9.648 L75.4585229,5.676 C75.4585229,5.236 75.3865229,4.924 75.2425229,4.74 C75.0985229,4.556 74.8185229,4.464 74.4025229,4.464 C74.0425229,4.464 73.7465229,4.532 73.5145229,4.668 C73.2825229,4.804 73.1185229,5.048 73.0225229,5.4 L73.0225229,9.648 L71.2825229,9.648 L71.2825229,0.528 L73.0225229,0.528 L73.0225229,3.96 C73.1985229,3.656 73.4605229,3.428 73.8085229,3.276 C74.1565229,3.124 74.5705229,3.048 75.0505229,3.048 Z" id="路径"></path>
                    <path d="M82.1068383,3.06 C82.6508383,3.06 83.1088383,3.106 83.4808383,3.198 C83.8528383,3.29 84.1528383,3.424 84.3808383,3.6 C84.6088383,3.776 84.7728383,3.994 84.8728383,4.254 C84.9728383,4.514 85.0228383,4.816 85.0228383,5.16 L85.0228383,9.648 L83.4628383,9.648 L83.2948383,8.892 C83.1588383,9.132 82.9148383,9.338 82.5628383,9.51 C82.2108383,9.682 81.7668383,9.768 81.2308383,9.768 C80.5028383,9.768 79.9508383,9.606 79.5748383,9.282 C79.1988383,8.958 79.0108383,8.46 79.0108383,7.788 C79.0108383,7.036 79.2368383,6.508 79.6888383,6.204 C80.1408383,5.9 80.8028383,5.748 81.6748383,5.748 L83.2828383,5.748 L83.2828383,5.58 C83.2828383,5.388 83.2648383,5.224 83.2288383,5.088 C83.1928383,4.952 83.1228383,4.842 83.0188383,4.758 C82.9148383,4.674 82.7748383,4.612 82.5988383,4.572 C82.4228383,4.532 82.1908383,4.512 81.9028383,4.512 C81.6708383,4.512 81.4388383,4.522 81.2068383,4.542 C80.9748383,4.562 80.7468383,4.592 80.5228383,4.632 L80.5228383,3.156 C80.7708383,3.124 81.0388383,3.1 81.3268383,3.084 C81.6148383,3.068 81.8748383,3.06 82.1068383,3.06 Z M81.6748383,8.436 C82.0748383,8.436 82.4148383,8.366 82.6948383,8.226 C82.9748383,8.086 83.1708383,7.904 83.2828383,7.68 L83.2828383,6.924 L81.9388383,6.924 C81.5068383,6.924 81.1968383,6.976 81.0088383,7.08 C80.8208383,7.184 80.7268383,7.4 80.7268383,7.728 C80.7268383,7.984 80.8008383,8.166 80.9488383,8.274 C81.0968383,8.382 81.3388383,8.436 81.6748383,8.436 Z" id="形状"></path>
                    <path d="M89.1631536,4.536 L89.1631536,7.428 C89.1631536,7.62 89.1731536,7.776 89.1931536,7.896 C89.2131536,8.016 89.2511536,8.11 89.3071536,8.178 C89.3631536,8.246 89.4391536,8.294 89.5351536,8.322 C89.6311536,8.35 89.7551536,8.364 89.9071536,8.364 C90.1151536,8.364 90.2871536,8.348 90.4231536,8.316 L90.4231536,9.66 C90.2951536,9.676 90.1591536,9.69 90.0151536,9.702 C89.8711536,9.714 89.7271536,9.72 89.5831536,9.72 C89.1831536,9.72 88.8451536,9.688 88.5691536,9.624 C88.2931536,9.56 88.0711536,9.448 87.9031536,9.288 C87.7351536,9.128 87.6131536,8.908 87.5371536,8.628 C87.4611536,8.348 87.4231536,7.996 87.4231536,7.572 L87.4231536,4.536 L86.5711536,4.536 L86.5711536,3.168 L87.4231536,3.168 L87.4231536,1.632 L89.1631536,1.632 L89.1631536,3.168 L90.5071536,3.168 L90.5071536,4.536 L89.1631536,4.536 Z" id="路径"></path>
                </g>
                <g id="TianliGPT备份-3" transform="translate(12.12, 34.176)" fill="#000000" fill-rule="nonzero">
                    <polygon id="路径" points="0 0.112 0 0.912 1.872 0.912 1.872 5.824 2.808 5.824 2.808 0.912 4.68 0.912 4.68 0.112"></polygon>
                    <path d="M6.21621023,0 C6.04021023,0 5.89621023,0.056 5.77621023,0.168 C5.65621023,0.28 5.60021023,0.424 5.60021023,0.6 C5.60021023,0.776 5.65621023,0.92 5.77621023,1.04 C5.89621023,1.152 6.04021023,1.208 6.21621023,1.208 C6.39221023,1.208 6.53621023,1.152 6.65621023,1.04 C6.77621023,0.928 6.84021023,0.776 6.84021023,0.6 C6.84021023,0.424 6.77621023,0.28 6.66421023,0.168 C6.54421023,0.056 6.39221023,0 6.21621023,0 Z M5.76021023,1.688 L5.76021023,5.824 L6.67221023,5.824 L6.67221023,1.688 L5.76021023,1.688 Z" id="形状"></path>
                    <path d="M10.0004205,1.576 C9.47242046,1.576 9.05642046,1.664 8.75242046,1.856 C8.39242046,2.064 8.16842046,2.4 8.08042046,2.856 L8.98442046,2.928 C9.03242046,2.712 9.15242046,2.552 9.32842046,2.448 C9.48042046,2.352 9.68042046,2.312 9.93642046,2.312 C10.5284205,2.312 10.8244205,2.576 10.8244205,3.12 L10.8244205,3.28 L9.92042046,3.304 C9.31242046,3.32 8.84042046,3.448 8.50442046,3.688 C8.13642046,3.936 7.96042046,4.296 7.96042046,4.76 C7.96042046,5.104 8.08842046,5.384 8.34442046,5.608 C8.59242046,5.824 8.92842046,5.936 9.36042046,5.936 C9.72042046,5.936 10.0324205,5.872 10.2964205,5.752 C10.5284205,5.64 10.7284205,5.488 10.8884205,5.28 L10.8884205,5.824 L11.7364205,5.824 L11.7364205,3.184 C11.7364205,2.68 11.6084205,2.296 11.3524205,2.032 C11.0644205,1.728 10.6084205,1.576 10.0004205,1.576 Z M10.8244205,3.936 L10.8244205,4.144 C10.8244205,4.464 10.6964205,4.728 10.4564205,4.936 C10.2164205,5.136 9.92042046,5.24 9.56842046,5.24 C9.36842046,5.24 9.20842046,5.184 9.08042046,5.088 C8.95242046,4.992 8.89642046,4.872 8.89642046,4.728 C8.89642046,4.232 9.25642046,3.976 9.98442046,3.96 L10.8244205,3.936 Z" id="形状"></path>
                    <path d="M15.1526307,1.576 C14.9046307,1.576 14.6806307,1.624 14.4726307,1.728 C14.2726307,1.824 14.0886307,1.976 13.9286307,2.168 L13.9286307,1.688 L13.0166307,1.688 L13.0166307,5.824 L13.9286307,5.824 L13.9286307,3.336 C13.9606307,3.008 14.0726307,2.752 14.2646307,2.576 C14.4326307,2.416 14.6326307,2.336 14.8566307,2.336 C15.4806307,2.336 15.7926307,2.672 15.7926307,3.352 L15.7926307,5.824 L16.7046307,5.824 L16.7046307,3.272 C16.7046307,2.136 16.1846307,1.576 15.1526307,1.576 Z" id="路径"></path>
                    <polygon id="路径" points="18.0648409 0 18.0648409 5.824 18.9768409 5.824 18.9768409 0"></polygon>
                    <path d="M20.9530512,0 C20.7770512,0 20.6330512,0.056 20.5130512,0.168 C20.3930512,0.28 20.3370512,0.424 20.3370512,0.6 C20.3370512,0.776 20.3930512,0.92 20.5130512,1.04 C20.6330512,1.152 20.7770512,1.208 20.9530512,1.208 C21.1290512,1.208 21.2730512,1.152 21.3930512,1.04 C21.5130512,0.928 21.5770512,0.776 21.5770512,0.6 C21.5770512,0.424 21.5130512,0.28 21.4010512,0.168 C21.2810512,0.056 21.1290512,0 20.9530512,0 Z M20.4970512,1.688 L20.4970512,5.824 L21.4090512,5.824 L21.4090512,1.688 L20.4970512,1.688 Z" id="形状"></path>
                    <path d="M25.4172614,0 C24.5692614,0 23.8972614,0.288 23.4012614,0.88 C22.9292614,1.432 22.6972614,2.136 22.6972614,2.992 C22.6972614,3.84 22.9292614,4.536 23.4012614,5.072 C23.9052614,5.648 24.6092614,5.936 25.5212614,5.936 C26.0332614,5.936 26.4892614,5.872 26.9052614,5.744 C27.2972614,5.616 27.6412614,5.44 27.9452614,5.2 L27.9452614,2.784 L25.4972614,2.784 L25.4972614,3.584 L27.0092614,3.584 L27.0092614,4.76 C26.8172614,4.872 26.6172614,4.96 26.3932614,5.024 C26.1532614,5.088 25.8972614,5.12 25.6252614,5.12 C24.9292614,5.12 24.4172614,4.928 24.0892614,4.544 C23.7852614,4.184 23.6332614,3.664 23.6332614,2.992 C23.6332614,2.288 23.8012614,1.752 24.1452614,1.368 C24.4572614,1 24.8812614,0.824 25.4172614,0.824 C25.8492614,0.824 26.2012614,0.912 26.4652614,1.096 C26.7212614,1.28 26.8972614,1.552 26.9772614,1.92 L27.9212614,1.92 C27.8172614,1.28 27.5612614,0.808 27.1532614,0.488 C26.7292614,0.16 26.1532614,0 25.4172614,0 Z" id="路径"></path>
                    <path d="M29.3054716,0.112 L29.3054716,5.824 L30.2414716,5.824 L30.2414716,3.632 L31.6574716,3.632 C33.0494716,3.632 33.7454716,3.04 33.7454716,1.864 C33.7454716,0.696 33.0494716,0.112 31.6734716,0.112 L29.3054716,0.112 Z M30.2414716,0.912 L31.6014716,0.912 C32.0094716,0.912 32.3134716,0.984 32.5054716,1.136 C32.6974716,1.28 32.8014716,1.52 32.8014716,1.864 C32.8014716,2.208 32.7054716,2.456 32.5134716,2.608 C32.3214716,2.752 32.0174716,2.832 31.6014716,2.832 L30.2414716,2.832 L30.2414716,0.912 Z" id="形状"></path>
                    <polygon id="路径" points="34.4256819 0.112 34.4256819 0.912 36.2976819 0.912 36.2976819 5.824 37.2336819 5.824 37.2336819 0.912 39.1056819 0.912 39.1056819 0.112"></polygon>
                </g>
                <g id="编组-2备份" transform="translate(119, 11)">
                    <rect id="矩形" fill="url(#linearGradient-1)" x="0" y="0" width="33" height="33" rx="7.90195303"></rect>
                    <g id="编组" transform="translate(5.7316, 7.6421)" fill-rule="nonzero">
                        <path d="M14.4622387,7.36442635 C16.0981838,7.36442635 17.4243793,8.63679186 17.4243793,10.2063342 C17.4243793,10.2110335 17.4243674,10.21573 17.4243437,10.2204239 L17.4350851,10.2051743 L17.3665676,13.9685299 C17.2051703,13.2681497 16.9925451,12.8005718 16.7286922,12.5657961 C16.6238577,12.4725147 16.5264717,12.391546 16.4365341,12.3228898 C15.913701,12.7743097 15.2213134,13.0482421 14.4622387,13.0482421 C12.8262936,13.0482421 11.5000981,11.7758766 11.5000981,10.2063342 C11.5000981,8.63679186 12.8262936,7.36442635 14.4622387,7.36442635 Z" id="形状结合" fill="#FFF56C" transform="translate(14.4676, 10.6665) rotate(-270) translate(-14.4676, -10.6665)"></path>
                        <path d="M15.6591413,0.0165735818 C16.3137619,0.125917864 16.7560327,0.746391806 16.6469203,1.40240398 L16.1590926,4.33543188 L17.3575658,4.33543188 C19.5697742,4.33543188 21.3631579,6.13262799 21.3631579,8.34953916 L21.3631579,13.7016822 C21.3631579,15.9185934 19.5697742,17.7157895 17.3575658,17.7157895 L4.00559211,17.7157895 C1.7933837,17.7157895 0,15.9185934 0,13.7016822 L0,8.34953916 C0,6.13262799 1.7933837,4.33543188 4.00559211,4.33543188 L5.20406526,4.33543188 L4.71623755,1.40240398 C4.60712522,0.746391806 5.049396,0.125917864 5.70401657,0.0165735818 C6.35863713,-0.0927707005 6.97779486,0.350440264 7.08690718,1.00645244 L7.62098613,4.21773826 C7.6275553,4.25713003 7.63209497,4.29641476 7.63476537,4.33543188 L13.7283925,4.33543188 C13.7310629,4.29636124 13.7356026,4.25713003 13.7421718,4.21773826 L14.2762507,1.00645244 C14.385363,0.350440264 15.0045208,-0.0927707005 15.6591413,0.0165735818 Z M17.3575658,6.74389625 L4.00559211,6.74389625 C3.1206767,6.74389625 2.40335526,7.46274258 2.40335526,8.34953916 L2.40335526,13.7016822 C2.40335526,14.5884788 3.1206767,15.3073251 4.00559211,15.3073251 L17.3575658,15.3073251 C18.2424812,15.3073251 18.9598026,14.5884788 18.9598026,13.7016822 L18.9598026,8.34953916 C18.9598026,7.46274258 18.2424812,6.74389625 17.3575658,6.74389625 Z M6.43565132,8.75094989 C7.09929782,8.75094989 7.63732895,9.29012478 7.63732895,9.95518207 L7.63732895,11.0256107 C7.63732895,11.690668 7.09929782,12.2298429 6.43565132,12.2298429 C5.77200482,12.2298429 5.23397368,11.690668 5.23397368,11.0256107 L5.23397368,9.95518207 C5.23397368,9.29012478 5.77200482,8.75094989 6.43565132,8.75094989 Z" id="形状结合" fill="#FFFFFF"></path>
                        <path d="M14.035097,10.2221044 C14.035097,9.7282086 14.4346585,9.32779769 14.9275066,9.32779769 C15.4203546,9.32779769 15.8199162,9.7282086 15.8199162,10.2221044 L15.8199162,11.0170436 C15.8199162,11.5109394 15.4203546,11.9113503 14.9275066,11.9113503 C14.4346585,11.9113503 14.035097,11.5109394 14.035097,11.0170436 L14.035097,10.2221044 Z" id="路径" fill="#1088FE"></path>
                    </g>
                </g>
                <g id="编组备份-3" transform="translate(142, 32)" fill-rule="nonzero">
                    <path d="M6.84678627,15.7819647 C6.56341273,15.9851104 6.20391047,16.0505621 5.86712294,15.960324 C5.53033541,15.8700859 5.25171806,15.633658 5.10787542,15.316045 C4.75777889,14.5433711 3.95435282,14.0795804 3.11015988,14.1628312 C2.76322815,14.1969642 2.41925663,14.0738417 2.17278893,13.827305 C1.92632124,13.5807683 1.80329507,13.2367623 1.83752525,12.8898401 C1.92071777,12.0455604 1.45676855,11.2421082 0.683955038,10.8921246 C0.366342,10.7482819 0.129914073,10.4696646 0.0396760047,10.1328771 C-0.050562064,9.79608953 0.0148895746,9.43658727 0.218035301,9.15321373 C0.712065352,8.46376943 0.712065352,7.53623057 0.218035301,6.84678627 C0.0148895746,6.56341273 -0.050562064,6.20391047 0.0396760047,5.86712294 C0.129914073,5.53033541 0.366342,5.25171806 0.683955038,5.10787542 C1.45662886,4.75777889 1.92041961,3.95435282 1.83716877,3.11015988 C1.80303575,2.76322815 1.92615826,2.41925663 2.172695,2.17278893 C2.41923173,1.92632124 2.76323773,1.80329507 3.11015988,1.83752525 C3.9544396,1.92071777 4.75789183,1.45676855 5.10787542,0.683955038 C5.25171806,0.366342 5.53033541,0.129914073 5.86712294,0.0396760047 C6.20391047,-0.050562064 6.56341273,0.0148895746 6.84678627,0.218035301 C7.53623057,0.712065352 8.46376943,0.712065352 9.15321373,0.218035301 C9.43658727,0.0148895746 9.79608953,-0.050562064 10.1328771,0.0396760047 C10.4696646,0.129914073 10.7482819,0.366342 10.8921246,0.683955038 C11.2422211,1.45662886 12.0456472,1.92041961 12.8898401,1.83716877 C13.2367718,1.80303575 13.5807434,1.92615826 13.8272111,2.172695 C14.0736788,2.41923173 14.1967049,2.76323773 14.1624747,3.11015988 C14.0792822,3.9544396 14.5432314,4.75789183 15.316045,5.10787542 C15.633658,5.25171806 15.8700859,5.53033541 15.960324,5.86712294 C16.0505621,6.20391047 15.9851104,6.56341273 15.7819647,6.84678627 C15.2879346,7.53623057 15.2879346,8.46376943 15.7819647,9.15321373 C15.9851104,9.43658727 16.0505621,9.79608953 15.960324,10.1328771 C15.8700859,10.4696646 15.633658,10.7482819 15.316045,10.8921246 C14.5433711,11.2422211 14.0795804,12.0456472 14.1628312,12.8898401 C14.1969642,13.2367718 14.0738417,13.5807434 13.827305,13.8272111 C13.5807683,14.0736788 13.2367623,14.1967049 12.8898401,14.1624747 C12.0455604,14.0792822 11.2421082,14.5432314 10.8921246,15.316045 C10.7482819,15.633658 10.4696646,15.8700859 10.1328771,15.960324 C9.79608953,16.0505621 9.43658727,15.9851104 9.15321373,15.7819647 C8.46376943,15.2879346 7.53623057,15.2879346 6.84678627,15.7819647 L6.84678627,15.7819647 Z" id="路径" fill="#0FC810"></path>
                    <path d="M11.1009966,5.1683066 C11.2990302,4.95221739 11.6181663,4.94305501 11.826413,5.14747991 C12.0346597,5.35190482 12.0587689,5.69801315 11.8812147,5.93420587 L11.8450805,5.9776882 L7.37987547,10.8324521 C7.18912701,11.0398109 6.8850553,11.0567775 6.67578477,10.8717388 L6.63579158,10.8324521 L4.1551611,8.13578484 C3.95614931,7.9206058 3.94748923,7.5734838 4.13547962,7.34689158 C4.32347,7.12029936 4.64193799,7.09399768 4.8592518,7.28711658 L4.899245,7.32640324 L7.00765812,9.61837969 L11.1009966,5.16868802 L11.1009966,5.1683066 Z" id="路径" fill="#FFFFFF"></path>
                </g>
            </g>
        </g>
    </g>
</svg>