<?xml version="1.0" encoding="UTF-8"?>
<svg width="166px" height="57px" viewBox="0 0 166 57" version="1.1" xmlns="http://www.w3.org/2000/svg" xmlns:xlink="http://www.w3.org/1999/xlink">
    <title>PostChat单色</title>
    <defs>
        <linearGradient x1="81.7060525%" y1="-2.29073388%" x2="17.8901485%" y2="100.393202%" id="linearGradient-1">
            <stop stop-color="#00B9FB" offset="0%"></stop>
            <stop stop-color="#1D5FFF" offset="100%"></stop>
        </linearGradient>
    </defs>
    <g id="认证" stroke="none" stroke-width="1" fill="none" fill-rule="evenodd">
        <g id="画板" transform="translate(-53, -165)">
            <g id="PostChat" transform="translate(53, 165.8262)">
                <rect id="矩形备份" stroke="#E6E6E6" stroke-width="0.728070175" fill="#FFFFFF" x="0.364035088" y="0.364035088" width="165.27193" height="54.7615319" rx="15.2894737"></rect>
                <text id="已接入PostChat" font-family="AlibabaPuHuiTi_2_95_ExtraBold, Alibaba PuHuiTi 2.0" font-size="12.296035" font-weight="700" letter-spacing="0.492164545" fill="#000000">
                    <tspan x="12.6578947" y="24.2360291">已接入PostChat</tspan>
                </text>
                <text id="TianliGPT" font-family="PingFangSC-Semibold, PingFang SC" font-size="7.31906847" font-weight="500" letter-spacing="0.292955076" fill="#000000">
                    <tspan x="12.7981462" y="40.2097133">TianliGPT</tspan>
                </text>
                <g id="编组-2" transform="translate(118.6754, 10.9992)">
                    <rect id="矩形" fill="url(#linearGradient-1)" x="0" y="0" width="33.4912281" height="33.4912281" rx="8.01957912"></rect>
                    <g id="编组" transform="translate(5.8169, 7.7559)" fill-rule="nonzero">
                        <path d="M14.6775192,7.47405099 C16.3378165,7.47405099 17.6837534,8.76535654 17.6837534,10.3582627 C17.6837534,10.363312 17.6837398,10.3683584 17.6837128,10.3734016 L17.6946186,10.3570854 L17.6250811,14.1764612 C17.4612812,13.4656554 17.245491,12.9911173 16.9777104,12.7528468 C16.8716161,12.6584443 16.7730384,12.5764673 16.6819773,12.5069156 C16.1506014,12.9644587 15.4479009,13.2424743 14.6775192,13.2424743 C13.0172219,13.2424743 11.6712851,11.9511688 11.6712851,10.3582627 C11.6712851,8.76535654 13.0172219,7.47405099 14.6775192,7.47405099 Z" id="形状结合" fill="#FFF56C" transform="translate(14.683, 10.8253) rotate(-270) translate(-14.683, -10.8253)"></path>
                        <path d="M15.8922386,0.0168202911 C16.5566036,0.127792239 17.0054579,0.75750237 16.8947214,1.42327974 L16.399632,4.39996782 L17.6159453,4.39996782 C19.861084,4.39996782 21.6811634,6.22391645 21.6811634,8.47382789 L21.6811634,13.9056413 C21.6811634,16.1555528 19.861084,17.9795014 17.6159453,17.9795014 L4.06521814,17.9795014 C1.82007947,17.9795014 0,16.1555528 0,13.9056413 L0,8.47382789 C0,6.22391645 1.82007947,4.39996782 4.06521814,4.39996782 L5.28153141,4.39996782 L4.78644205,1.42327974 C4.6757055,0.75750237 5.12455979,0.127792239 5.78892484,0.0168202911 C6.45328989,-0.0941516572 7.08166421,0.355656813 7.19240075,1.02143418 L7.73442984,4.28052224 C7.7410968,4.32050039 7.74570404,4.3603699 7.74841419,4.39996782 L13.9327492,4.39996782 C13.9354594,4.36031558 13.9400666,4.32050039 13.9467336,4.28052224 L14.4887627,1.02143418 C14.5994992,0.355656813 15.2278735,-0.0941516572 15.8922386,0.0168202911 Z M17.6159453,6.84428386 L4.06521814,6.84428386 C3.16713015,6.84428386 2.43913089,7.57383072 2.43913089,8.47382789 L2.43913089,13.9056413 C2.43913089,14.8056385 3.16713015,15.5351853 4.06521814,15.5351853 L17.6159453,15.5351853 C18.5140333,15.5351853 19.2420325,14.8056385 19.2420325,13.9056413 L19.2420325,8.47382789 C19.2420325,7.57383072 18.5140333,6.84428386 17.6159453,6.84428386 Z M6.53145048,8.88121389 C7.20497583,8.88121389 7.75101593,9.42841478 7.75101593,10.1033719 L7.75101593,11.1897346 C7.75101593,11.8646917 7.20497583,12.4118926 6.53145048,12.4118926 C5.85792514,12.4118926 5.31188504,11.8646917 5.31188504,11.1897346 L5.31188504,10.1033719 C5.31188504,9.42841478 5.85792514,8.88121389 6.53145048,8.88121389 Z" id="形状结合" fill="#FFFFFF"></path>
                        <path d="M14.2440192,10.3742675 C14.2440192,9.87301979 14.6495285,9.46664848 15.149713,9.46664848 C15.6498974,9.46664848 16.0554067,9.87301979 16.0554067,10.3742675 L16.0554067,11.18104 C16.0554067,11.6822878 15.6498974,12.0886591 15.149713,12.0886591 C14.6495285,12.0886591 14.2440192,11.6822878 14.2440192,11.18104 L14.2440192,10.3742675 Z" id="路径" fill="#1088FE"></path>
                    </g>
                </g>
                <g id="编组备份" transform="translate(141.8184, 32.2097)" fill-rule="nonzero">
                    <path d="M6.84678627,15.7819647 C6.56341273,15.9851104 6.20391047,16.0505621 5.86712294,15.960324 C5.53033541,15.8700859 5.25171806,15.633658 5.10787542,15.316045 C4.75777889,14.5433711 3.95435282,14.0795804 3.11015988,14.1628312 C2.76322815,14.1969642 2.41925663,14.0738417 2.17278893,13.827305 C1.92632124,13.5807683 1.80329507,13.2367623 1.83752525,12.8898401 C1.92071777,12.0455604 1.45676855,11.2421082 0.683955038,10.8921246 C0.366342,10.7482819 0.129914073,10.4696646 0.0396760047,10.1328771 C-0.050562064,9.79608953 0.0148895746,9.43658727 0.218035301,9.15321373 C0.712065352,8.46376943 0.712065352,7.53623057 0.218035301,6.84678627 C0.0148895746,6.56341273 -0.050562064,6.20391047 0.0396760047,5.86712294 C0.129914073,5.53033541 0.366342,5.25171806 0.683955038,5.10787542 C1.45662886,4.75777889 1.92041961,3.95435282 1.83716877,3.11015988 C1.80303575,2.76322815 1.92615826,2.41925663 2.172695,2.17278893 C2.41923173,1.92632124 2.76323773,1.80329507 3.11015988,1.83752525 C3.9544396,1.92071777 4.75789183,1.45676855 5.10787542,0.683955038 C5.25171806,0.366342 5.53033541,0.129914073 5.86712294,0.0396760047 C6.20391047,-0.050562064 6.56341273,0.0148895746 6.84678627,0.218035301 C7.53623057,0.712065352 8.46376943,0.712065352 9.15321373,0.218035301 C9.43658727,0.0148895746 9.79608953,-0.050562064 10.1328771,0.0396760047 C10.4696646,0.129914073 10.7482819,0.366342 10.8921246,0.683955038 C11.2422211,1.45662886 12.0456472,1.92041961 12.8898401,1.83716877 C13.2367718,1.80303575 13.5807434,1.92615826 13.8272111,2.172695 C14.0736788,2.41923173 14.1967049,2.76323773 14.1624747,3.11015988 C14.0792822,3.9544396 14.5432314,4.75789183 15.316045,5.10787542 C15.633658,5.25171806 15.8700859,5.53033541 15.960324,5.86712294 C16.0505621,6.20391047 15.9851104,6.56341273 15.7819647,6.84678627 C15.2879346,7.53623057 15.2879346,8.46376943 15.7819647,9.15321373 C15.9851104,9.43658727 16.0505621,9.79608953 15.960324,10.1328771 C15.8700859,10.4696646 15.633658,10.7482819 15.316045,10.8921246 C14.5433711,11.2422211 14.0795804,12.0456472 14.1628312,12.8898401 C14.1969642,13.2367718 14.0738417,13.5807434 13.827305,13.8272111 C13.5807683,14.0736788 13.2367623,14.1967049 12.8898401,14.1624747 C12.0455604,14.0792822 11.2421082,14.5432314 10.8921246,15.316045 C10.7482819,15.633658 10.4696646,15.8700859 10.1328771,15.960324 C9.79608953,16.0505621 9.43658727,15.9851104 9.15321373,15.7819647 C8.46376943,15.2879346 7.53623057,15.2879346 6.84678627,15.7819647 L6.84678627,15.7819647 Z" id="路径" fill="#0FC810"></path>
                    <path d="M11.5074096,5.54385081 C11.7086397,5.34189301 12.0329272,5.3333298 12.2445354,5.52438611 C12.4561436,5.71544242 12.480642,6.03891661 12.3002217,6.25966323 L12.2635043,6.30030198 L7.72622314,10.8375831 C7.53239567,11.0313815 7.22341572,11.0472384 7.0107672,10.8743006 L6.97012845,10.8375831 L4.44945633,8.31726746 C4.24723214,8.11616029 4.23843228,7.79173872 4.42945715,7.57996476 C4.62048202,7.3681908 4.94409063,7.34360915 5.16491227,7.52409881 L5.20555102,7.56081628 L7.34799755,9.70290634 L11.5074096,5.54420729 L11.5074096,5.54385081 Z" id="路径" fill="#FFFFFF"></path>
                </g>
            </g>
        </g>
    </g>
</svg>