<?xml version="1.0" encoding="UTF-8"?>
<svg width="166px" height="56px" viewBox="0 0 166 56" version="1.1" xmlns="http://www.w3.org/2000/svg" xmlns:xlink="http://www.w3.org/1999/xlink">
    <title>文章摘要单色</title>
    <g id="认证" stroke="none" stroke-width="1" fill="none" fill-rule="evenodd">
        <g id="画板" transform="translate(-53, -99)">
            <g id="文章摘要" transform="translate(53, 99)">
                <rect id="矩形" stroke="#E6E6E6" stroke-width="0.728070175" fill="#FFFFFF" x="0.364035088" y="0.364035088" width="165.27193" height="54.7615319" rx="15.2894737"></rect>
                <text id="已接入文章摘要" font-family="AlibabaPuHuiTi_2_95_ExtraBold, Alibaba PuHuiTi 2.0" font-size="12.296035" font-weight="700" letter-spacing="0.492164545" fill="#000000">
                    <tspan x="12.5175439" y="24.2360291">已接入文章摘要</tspan>
                </text>
                <text id="TianliGPT备份" font-family="PingFangSC-Semibold, PingFang SC" font-size="7.31906847" font-weight="500" letter-spacing="0.292955076" fill="#000000">
                    <tspan x="12.7981462" y="40.2097133">TianliGPT</tspan>
                </text>
                <path d="M141.824102,15.3907664 C142.741569,15.5435539 143.361423,16.4105461 143.208499,17.3271961 L142.524796,21.4255348 L144.204487,21.4255348 C147.304955,21.4255348 149.818429,23.9367684 149.818429,27.0344725 L149.818429,34.5130562 C149.818429,37.6107604 147.304955,40.121994 144.204487,40.121994 L125.49135,40.121994 C122.390883,40.121994 119.877409,37.6107604 119.877409,34.5130562 L119.877409,27.0344725 C119.877409,23.9367684 122.390883,21.4255348 125.49135,21.4255348 L127.171042,21.4255348 L126.487338,17.3271961 C126.334415,16.4105461 126.954269,15.5435539 127.871736,15.3907664 C128.789204,15.237979 129.65697,15.8572805 129.809893,16.7739305 L130.558419,21.2610807 C130.567626,21.3161231 130.573988,21.3710159 130.577731,21.4255348 L139.118107,21.4255348 C139.12185,21.3709411 139.128212,21.3161231 139.137419,21.2610807 L139.885945,16.7739305 C140.038868,15.8572805 140.906634,15.237979 141.824102,15.3907664 Z M144.204487,24.7908974 L125.49135,24.7908974 C124.251119,24.7908974 123.245774,25.795346 123.245774,27.0344725 L123.245774,34.5130562 C123.245774,35.7521828 124.251119,36.7566313 125.49135,36.7566313 L144.204487,36.7566313 C145.444719,36.7566313 146.450064,35.7521828 146.450064,34.5130562 L146.450064,27.0344725 C146.450064,25.795346 145.444719,24.7908974 144.204487,24.7908974 Z M128.897141,27.5953663 C129.827259,27.5953663 130.581324,28.3487588 130.581324,29.2780476 L130.581324,30.7737644 C130.581324,31.7030532 129.827259,32.4564457 128.897141,32.4564457 C127.967024,32.4564457 127.212959,31.7030532 127.212959,30.7737644 L127.212959,29.2780476 C127.212959,28.3487588 127.967024,27.5953663 128.897141,27.5953663 Z M140.798696,27.5953663 C141.728814,27.5953663 142.482879,28.3487588 142.482879,29.2780476 L142.482879,30.7737644 C142.482879,31.7030532 141.728814,32.4564457 140.798696,32.4564457 C139.868579,32.4564457 139.114514,31.7030532 139.114514,30.7737644 L139.114514,29.2780476 C139.114514,28.3487588 139.868579,27.5953663 140.798696,27.5953663 Z" id="形状结合" fill="#444444" fill-rule="nonzero"></path>
                <g id="编组" transform="translate(141.8184, 29.2097)" fill-rule="nonzero">
                    <path d="M6.84678627,15.7819647 C6.56341273,15.9851104 6.20391047,16.0505621 5.86712294,15.960324 C5.53033541,15.8700859 5.25171806,15.633658 5.10787542,15.316045 C4.75777889,14.5433711 3.95435282,14.0795804 3.11015988,14.1628312 C2.76322815,14.1969642 2.41925663,14.0738417 2.17278893,13.827305 C1.92632124,13.5807683 1.80329507,13.2367623 1.83752525,12.8898401 C1.92071777,12.0455604 1.45676855,11.2421082 0.683955038,10.8921246 C0.366342,10.7482819 0.129914073,10.4696646 0.0396760047,10.1328771 C-0.050562064,9.79608953 0.0148895746,9.43658727 0.218035301,9.15321373 C0.712065352,8.46376943 0.712065352,7.53623057 0.218035301,6.84678627 C0.0148895746,6.56341273 -0.050562064,6.20391047 0.0396760047,5.86712294 C0.129914073,5.53033541 0.366342,5.25171806 0.683955038,5.10787542 C1.45662886,4.75777889 1.92041961,3.95435282 1.83716877,3.11015988 C1.80303575,2.76322815 1.92615826,2.41925663 2.172695,2.17278893 C2.41923173,1.92632124 2.76323773,1.80329507 3.11015988,1.83752525 C3.9544396,1.92071777 4.75789183,1.45676855 5.10787542,0.683955038 C5.25171806,0.366342 5.53033541,0.129914073 5.86712294,0.0396760047 C6.20391047,-0.050562064 6.56341273,0.0148895746 6.84678627,0.218035301 C7.53623057,0.712065352 8.46376943,0.712065352 9.15321373,0.218035301 C9.43658727,0.0148895746 9.79608953,-0.050562064 10.1328771,0.0396760047 C10.4696646,0.129914073 10.7482819,0.366342 10.8921246,0.683955038 C11.2422211,1.45662886 12.0456472,1.92041961 12.8898401,1.83716877 C13.2367718,1.80303575 13.5807434,1.92615826 13.8272111,2.172695 C14.0736788,2.41923173 14.1967049,2.76323773 14.1624747,3.11015988 C14.0792822,3.9544396 14.5432314,4.75789183 15.316045,5.10787542 C15.633658,5.25171806 15.8700859,5.53033541 15.960324,5.86712294 C16.0505621,6.20391047 15.9851104,6.56341273 15.7819647,6.84678627 C15.2879346,7.53623057 15.2879346,8.46376943 15.7819647,9.15321373 C15.9851104,9.43658727 16.0505621,9.79608953 15.960324,10.1328771 C15.8700859,10.4696646 15.633658,10.7482819 15.316045,10.8921246 C14.5433711,11.2422211 14.0795804,12.0456472 14.1628312,12.8898401 C14.1969642,13.2367718 14.0738417,13.5807434 13.827305,13.8272111 C13.5807683,14.0736788 13.2367623,14.1967049 12.8898401,14.1624747 C12.0455604,14.0792822 11.2421082,14.5432314 10.8921246,15.316045 C10.7482819,15.633658 10.4696646,15.8700859 10.1328771,15.960324 C9.79608953,16.0505621 9.43658727,15.9851104 9.15321373,15.7819647 C8.46376943,15.2879346 7.53623057,15.2879346 6.84678627,15.7819647 L6.84678627,15.7819647 Z" id="路径" fill="#0FC810"></path>
                    <path d="M11.5074096,5.54385081 C11.7086397,5.34189301 12.0329272,5.3333298 12.2445354,5.52438611 C12.4561436,5.71544242 12.480642,6.03891661 12.3002217,6.25966323 L12.2635043,6.30030198 L7.72622314,10.8375831 C7.53239567,11.0313815 7.22341572,11.0472384 7.0107672,10.8743006 L6.97012845,10.8375831 L4.44945633,8.31726746 C4.24723214,8.11616029 4.23843228,7.79173872 4.42945715,7.57996476 C4.62048202,7.3681908 4.94409063,7.34360915 5.16491227,7.52409881 L5.20555102,7.56081628 L7.34799755,9.70290634 L11.5074096,5.54420729 L11.5074096,5.54385081 Z" id="路径" fill="#FFFFFF"></path>
                </g>
            </g>
        </g>
    </g>
</svg>